# xmcd
# 
# Track frame offsets:
#     150
#     19357
#     40460
#     57883
# 
# Disc length: 1014
# 
# Revision: 0
# Processed by: cddbd v1.5.2PL0 Copyright (c) Steve Scherf et al.
# Submitted via: fre:ac v1.0.17
# 
DISCID=3103f404
DTITLE=Various Artist - 346Pro IDOL selection vol.5
DYEAR=0
DGENRE=
TTITLE0=日野茜・高森藍子 - Flip Flop
TTITLE1=前川みく - You're stars shine on me ～For Miku rearrange MIX～
TTITLE2=諸星きらり - あんずのうた ～For Kirari rearranged MIX～
TTITLE3=城ヶ崎莉嘉 - Twilight Sky ～For Rika rearranged MIX～
EXTD=
EXTT0=
EXTT1=
EXTT2=
EXTT3=
PLAYORDER=
